Coordinates
version=1
nRows=18
nColumns=22
inDegrees=yes

Units are S.I. units (second, meters, Newtons, ...)
If the header above contains a line with 'inDegrees', this indicates whether rotational values are in degrees (yes) or radians (no).

endheader
time	pelvis_tilt	pelvis_list	pelvis_rotation	pelvis_tx	pelvis_ty	pelvis_tz	hip_flexion_r	hip_adduction_r	hip_rotation_r	knee_angle_r	ankle_angle_r	subtalar_angle_r	hip_flexion_l	hip_adduction_l	hip_rotation_l	knee_angle_l	ankle_angle_l	subtalar_angle_l	lumbar_extension	lumbar_bending	lumbar_rotation
      1.71000000	      7.43216073	     -3.51812451	      4.34758325	      1.11423026	      0.94750382	     -0.06325953	     -8.71925798	      5.59776096	     -8.51910957	     -8.47242816	      9.25289391	     -0.89285942	     -4.94392482	     -5.81148997	     -9.40507769	    -17.72662989	     21.77702790	     -8.82986867	    -12.44305721	      4.57480536	     -8.87983055
      1.72000000	      7.48038229	     -3.53401304	      4.40795462	      1.11311499	      0.94768743	     -0.06281922	     -8.67404108	      5.66696716	     -8.51690563	     -8.49632498	      9.12637833	     -1.05058806	     -4.75452875	     -5.87656613	     -9.25469766	    -18.00091318	     21.70837788	     -8.88549300	    -12.54097545	      4.65427147	     -8.82477577
      1.73000000	      7.51204235	     -3.55905587	      4.46059364	      1.11189272	      0.94783161	     -0.06232281	     -8.58428445	      5.74486168	     -8.52157770	     -8.55442980	      9.02433917	     -1.24441407	     -4.52281585	     -5.95122503	     -9.09194313	    -18.30878510	     21.65698860	     -8.96410069	    -12.62979959	      4.74211858	     -8.77085854
      1.74000000	      7.53915340	     -3.58486566	      4.50725622	      1.11057280	      0.94795854	     -0.06177764	     -8.47026080	      5.82409746	     -8.53688762	     -8.63583786	      8.94531514	     -1.44890518	     -4.26759130	     -6.02642176	     -8.91855146	    -18.64064475	     21.60360575	     -9.05924461	    -12.72394299	      4.83163850	     -8.71197032
      1.75000000	      7.61175593	     -3.61503748	      4.53054259	      1.10916645	      0.94815434	     -0.06116670	     -8.38547183	      5.90804266	     -8.54278327	     -8.74482511	      8.90146807	     -1.55394885	     -4.06821630	     -6.10543010	     -8.74988119	    -18.95657668	     21.49132970	     -9.12742228	    -12.88389781	      4.93211411	     -8.62975229
      1.76000000	      7.58264828	     -3.64144047	      4.58603744	      1.10762854	      0.94816385	     -0.06054212	     -8.18079387	      5.98886843	     -8.60735699	     -8.84955586	      8.82151325	     -1.82816798	     -3.67378817	     -6.18388628	     -8.53456288	    -19.40365043	     21.48812295	     -9.27693963	    -12.92951482	      5.01941328	     -8.58819430
      1.77000000	      7.60050828	     -3.66674844	      4.60877723	      1.10597876	      0.94824672	     -0.05984340	     -7.99498528	      6.06574069	     -8.64484655	     -9.00530521	      8.80187680	     -2.06177663	     -3.34171646	     -6.25631948	     -8.32547695	    -19.82501310	     21.41670523	     -9.42249132	    -13.04800300	      5.11201286	     -8.52762825
      1.78000000	      7.63250037	     -3.68597117	      4.64155640	      1.10424756	      0.94834597	     -0.05912382	     -7.83881453	      6.14115240	     -8.71505534	     -9.12010949	      8.75700171	     -2.22738212	     -2.98769280	     -6.32997270	     -8.12442296	    -20.30288938	     21.31596003	     -9.54426189	    -13.18859400	      5.20151758	     -8.46374685
      1.79000000	      7.64817651	     -3.70268689	      4.66850280	      1.10239075	      0.94841807	     -0.05835028	     -7.64050290	      6.21237257	     -8.78446101	     -9.26738891	      8.72289102	     -2.40730283	     -2.58929871	     -6.39815553	     -7.89911833	    -20.81519800	     21.21297270	     -9.68025192	    -13.32279562	      5.28860156	     -8.41106974
      1.80000000	      7.66184158	     -3.71275331	      4.69181076	      1.10040594	      0.94849114	     -0.05754817	     -7.42293584	      6.27421444	     -8.84818217	     -9.43401117	      8.68782499	     -2.60179269	     -2.16353905	     -6.45558252	     -7.65023960	    -21.35767024	     21.10014371	     -9.82544167	    -13.46688550	      5.37321954	     -8.36457949
      1.81000000	      7.68185337	     -3.70743189	      4.72317367	      1.09833067	      0.94858609	     -0.05672484	     -7.22514891	      6.32384805	     -8.92669455	     -9.56626726	      8.63570836	     -2.77605335	     -1.71547577	     -6.49974058	     -7.40258943	    -21.93903852	     20.95090328	     -9.95874365	    -13.62428943	      5.44253906	     -8.31838818
      1.82000000	      7.69740529	     -3.68837270	      4.75854421	      1.09614831	      0.94868969	     -0.05586492	     -7.02264135	      6.36133398	     -9.00794026	     -9.68774621	      8.57075109	     -2.94647934	     -1.23713965	     -6.52939712	     -7.14077381	    -22.55159324	     20.77580904	    -10.08477028	    -13.78283164	      5.49401049	     -8.27997977
      1.83000000	      7.71152214	     -3.65363874	      4.80420502	      1.09385916	      0.94881761	     -0.05499530	     -6.82413119	      6.38416426	     -9.09249758	     -9.78913272	      8.49302645	     -3.11273326	     -0.73391185	     -6.54255126	     -6.87099918	    -23.18630295	     20.56355426	    -10.20095555	    -13.94622335	      5.53150851	     -8.24403757
      1.84000000	      7.71598447	     -3.60252017	      4.85917791	      1.09147003	      0.94895684	     -0.05411152	     -6.62258765	      6.39188057	     -9.18453144	     -9.86744327	      8.40038324	     -3.27896670	     -0.20153351	     -6.53636206	     -6.59030798	    -23.83608821	     20.32075067	    -10.30402802	    -14.10043150	      5.54895176	     -8.21448370
      1.85000000	      7.71090694	     -3.53295433	      4.92680232	      1.08898655	      0.94911571	     -0.05321852	     -6.41963046	      6.38229594	     -9.28282365	     -9.92151986	      8.28654248	     -3.43934091	      0.35375310	     -6.50926530	     -6.30043703	    -24.48693955	     20.04409644	    -10.38715826	    -14.24404431	      5.54450490	     -8.19496335
      1.86000000	      7.69369626	     -3.44795027	      5.00797024	      1.08641091	      0.94928636	     -0.05232771	     -6.21290776	      6.35774125	     -9.39207655	     -9.94949092	      8.16285228	     -3.59633563	      0.92969552	     -6.46461117	     -6.00947421	    -25.12925995	     19.73509636	    -10.44921703	    -14.37242263	      5.52255118	     -8.17460281
      1.87000000	      7.65573469	     -3.35118064	      5.10710106	      1.08374178	      0.94945078	     -0.05145529	     -5.99034154	      6.32087752	     -9.51833612	     -9.95618850	      8.02958761	     -3.75579372	      1.52894640	     -6.40447931	     -5.71861359	    -25.74633204	     19.40205507	    -10.48590259	    -14.47443849	      5.48817521	     -8.15776647
      1.88000000	      7.60153744	     -3.24489823	      5.21847691	      1.08099930	      0.94961032	     -0.05058840	     -5.75773703	      6.27384661	     -9.66067727	     -9.94185368	      7.89045696	     -3.91429354	      2.13626350	     -6.33296079	     -5.43524498	    -26.32481977	     19.05253864	    -10.49114236	    -14.55140913	      5.44112375	     -8.13775641
